<svg xmlns="http://www.w3.org/2000/svg" width="1745.45" height="96" viewBox="0 0 1745.45 96"><defs><style>.a{fill:#dcdcdc;}</style></defs><title>catch-back</title><path class="a" d="M514.49,51.81H497.92a.69.69,0,0,0-.69.69V95.31a.69.69,0,0,0,.69.69h16.57a.69.69,0,0,0,.69-.69V52.5A.69.69,0,0,0,514.49,51.81Zm-.69,1.38V63.55h-6.91V53.19Zm-8.29,0V63.55h-6.9V53.19Zm-6.9,41.43V64.93H513.8V94.62Z"/><path class="a" d="M520,78.91h8.29a.69.69,0,0,0,.69-.69V64.41a.69.69,0,0,0-.69-.69H520a.69.69,0,0,0-.69.69V78.22A.69.69,0,0,0,520,78.91Zm.69-13.81h6.91V77.53H520.7Z"/><path class="a" d="M415.23,77h-7.59a.69.69,0,0,0-.69.69v7.6a.69.69,0,0,0,.69.69h7.59a.69.69,0,0,0,.69-.69V77.7A.69.69,0,0,0,415.23,77Zm-.69,7.6h-6.21V78.39h6.21Z"/><path class="a" d="M426.4,77h-7.6a.69.69,0,0,0-.69.69v7.6a.69.69,0,0,0,.69.69h7.6a.69.69,0,0,0,.69-.69V77.7A.69.69,0,0,0,426.4,77Zm-.7,7.6h-6.21V78.39h6.21Z"/><path class="a" d="M437.56,77H430a.69.69,0,0,0-.69.69v7.6A.69.69,0,0,0,430,86h7.6a.69.69,0,0,0,.69-.69V77.7A.69.69,0,0,0,437.56,77Zm-.69,7.6h-6.22V78.39h6.22Z"/><path class="a" d="M448.72,77h-7.6a.69.69,0,0,0-.69.69v7.6a.69.69,0,0,0,.69.69h7.6a.69.69,0,0,0,.69-.69V77.7A.69.69,0,0,0,448.72,77Zm-.69,7.6h-6.21V78.39H448Z"/><path class="a" d="M544.87,83.23H520a.69.69,0,0,0-.69.69V95.31A.69.69,0,0,0,520,96h24.86a.69.69,0,0,0,.69-.69V83.92A.69.69,0,0,0,544.87,83.23Zm-8.63,1.38v10h-7.6v-10Zm-15.54,0h6.56v10H520.7Zm23.48,10h-6.56v-10h6.56Z"/><path class="a" d="M544.87,57h-11a.69.69,0,0,0-.69.69v3.8a.69.69,0,0,0,.69.69h11a.69.69,0,0,0,.69-.69v-3.8A.69.69,0,0,0,544.87,57Zm-.69,3.8h-9.67V58.37h9.67Z"/><path class="a" d="M945.25,62.51H932.8c-.38-18.17-15.48-23.64-15.63-23.69a.61.61,0,0,0-.46,0,23.85,23.85,0,0,0-7.84,5.09c-3.48,3.32-7.59,9.23-7.79,18.6H888.63a.69.69,0,0,0-.69.69v11a.69.69,0,0,0,.69.69H896V95.31a.69.69,0,1,0,1.38,0V74.94h2.76V95.31a.69.69,0,1,0,1.38,0V74.94h4.68l5.35,6.48s0,0,0,.08V95.31a.69.69,0,0,0,.69.69h9.5a.69.69,0,0,0,.69-.69V81.5a.24.24,0,0,0,0-.08l5.35-6.48h4.16V95.31a.69.69,0,0,0,1.38,0V74.94H936V95.31a.7.7,0,0,0,1.39,0V74.94h7.85a.69.69,0,0,0,.69-.69v-11A.69.69,0,0,0,945.25,62.51Zm-28.31-22.3c1.82.73,14.11,6.3,14.47,22.3H929a19.31,19.31,0,0,0-11.82-17.76.72.72,0,0,0-.46,0,19.31,19.31,0,0,0-11.82,17.76h-2.42C902.82,46.35,915,41,916.94,40.21Zm-2.16,23.94c0-2.39,1.14-4.05,2.16-4.05s2.16,1.66,2.16,4.05-1.14,4.06-2.16,4.06S914.78,66.54,914.78,64.15Zm2.16-5.44c-1.61,0-2.92,1.58-3.36,3.8h-3.51a11.49,11.49,0,0,1,6.87-10.43,11.66,11.66,0,0,1,6.87,10.43H920.3C919.86,60.29,918.55,58.71,916.94,58.71Zm8.25,3.8a13.11,13.11,0,0,0-8-11.83.72.72,0,0,0-.46,0,13.13,13.13,0,0,0-8,11.83h-2.42c.34-11.71,9.09-15.74,10.67-16.37,1.58.63,10.33,4.66,10.67,16.37Zm-35.87,1.38h24.1c0,.09,0,.17,0,.26a7.91,7.91,0,0,0,.4,2.51h-3.51a.69.69,0,0,0-.69.69v6.21H889.32Zm31.83,16.83a.73.73,0,0,0,0,.09h-8.32a.73.73,0,0,0,0-.09l-.3-.36c.28-5.69,3.53-7.91,4.51-8.45,1,.55,4.23,2.77,4.51,8.45ZM921,94.62h-8.12V82.19H921Zm1.69-15.76c-.89-6.31-5.28-8.27-5.48-8.35a.72.72,0,0,0-.54,0c-.2.08-4.59,2-5.48,8.35L908,74.94h2.33a.69.69,0,0,0,.7-.69V68h3.45a2.79,2.79,0,0,0,5,0h3.46v6.21a.69.69,0,0,0,.69.69h2.33Zm21.87-5.3H924.28V67.35a.69.69,0,0,0-.69-.69h-3.51a7.91,7.91,0,0,0,.4-2.51,2.28,2.28,0,0,0,0-.26h24.1Z"/><path class="a" d="M883.88,30.06H850.74a.69.69,0,0,0-.69.69V45.94a.69.69,0,0,0,.69.69h4.49v2.42h-4.49a.69.69,0,0,0-.69.69V87H835.9V73.21H839a.68.68,0,0,0,.69-.69,8.29,8.29,0,0,0-8.28-8.28H809.14V34.55a.69.69,0,0,0-.69-.69H780.83a.69.69,0,0,0-.69.69v18.3H758.05a.69.69,0,0,0-.69.69V85H698.48L697,76.21a.7.7,0,0,0-.68-.58H599.41V39.73a.69.69,0,0,0-.69-.69c-15.11,0-36.33,3-47.79,8.63H535.15a.41.41,0,0,0,0-.11A4.16,4.16,0,0,0,529,44.78l-.07,0a25.21,25.21,0,0,0,2.71-9.56,4.15,4.15,0,1,0,0-4.21,25.35,25.35,0,0,0-1.9-7.79,2.31,2.31,0,0,0,.28.1,3.88,3.88,0,0,0,1.07.14,4.15,4.15,0,1,0-4-5,25.73,25.73,0,0,0-7.14-6.81,4.06,4.06,0,0,0,.77.1,4.38,4.38,0,0,0,1.08-.14,4.16,4.16,0,1,0-4.16-1.27,25.18,25.18,0,0,0-9.42-2.62,4.15,4.15,0,1,0-4,0,25.38,25.38,0,0,0-9.39,2.6,4.1,4.1,0,0,0,.87-3.79,4.15,4.15,0,0,0-7.59-1,4.08,4.08,0,0,0,4.37,6.12,25.75,25.75,0,0,0-7.09,6.75A4.05,4.05,0,0,0,485,17.3a4.15,4.15,0,0,0-5.66-1.52h0a4.14,4.14,0,0,0-1.51,5.66,4.06,4.06,0,0,0,2.51,1.93,4,4,0,0,0,1.08.14,4.3,4.3,0,0,0,1.28-.22,25.23,25.23,0,0,0-1.9,7.77,4.14,4.14,0,1,0,0,4.21,25.32,25.32,0,0,0,2.69,9.53,4.11,4.11,0,0,0-6.11,2.74.56.56,0,0,0,0,.13h-4.95a.69.69,0,0,0-.69.69V60.1H456.49V36.62a.69.69,0,0,0-.69-.69H400.56a.69.69,0,0,0-.69.69V83.57H387.44a.69.69,0,0,0-.69.69V94.62H353.61V83.57h2.07a.69.69,0,0,0,.69-.69V77.36a.69.69,0,0,0-.69-.69H323.23V67a.69.69,0,0,0-.69-.69H310.11a.69.69,0,0,0-.69.69V85.13H299.06a.69.69,0,0,0-.69.69V89.1h-4.14V74.6a.69.69,0,0,0-.69-.69h-5.7a.69.69,0,0,0-.69.69v5.52h-10V77.36a.69.69,0,0,0-.69-.69h-2.6a7.68,7.68,0,0,0-1.84-7.3,9.72,9.72,0,0,0-8.29-3.45,4.87,4.87,0,0,0-.87-4.4,4.61,4.61,0,0,0-4.56-1.61,7.51,7.51,0,0,0-5.14-6.84,9,9,0,0,0-9.86,3.14,15.94,15.94,0,0,0-4.38-.63h-.14c-5.83.06-10.34,3.32-11.74,8.39a9.58,9.58,0,0,0-1.86-.51v0a8.37,8.37,0,0,0-6.61-7.23,8.66,8.66,0,0,0-7.81,2c-2.95-4.22-9.1-6.81-16-6.59-7.52.21-13.82,3.59-16.45,8.84a.69.69,0,0,0,1.24.62c2.86-5.73,9.75-7.93,15.25-8.08,6.88-.19,12.85,2.45,15.29,6.73a.7.7,0,0,0,.58.35.79.79,0,0,0,.6-.31c1.24-1.87,4.25-2.83,7-2.24a7,7,0,0,1,5.47,5.82,5.65,5.65,0,0,0-3.7,1.37,5.46,5.46,0,0,0-1.47,5.93.68.68,0,0,0,.65.47.78.78,0,0,0,.22,0,.7.7,0,0,0,.44-.88A4.1,4.1,0,0,1,221,65.77c1.48-1.3,3.82-1.39,6.26-.22a.72.72,0,0,0,.61,0,.74.74,0,0,0,.37-.48c1.19-5.92,6.25-8.07,10.59-8.11h.14c5.16,0,11.32,3,12.77,9.5a.7.7,0,0,0,.83.52.69.69,0,0,0,.52-.82,13.14,13.14,0,0,0-8.34-9.47,7.55,7.55,0,0,1,8-2.31c2.69.89,4.23,3.23,4.23,6.41a.7.7,0,0,0,.29.56.68.68,0,0,0,.62.09,3.44,3.44,0,0,1,3.92,1,3.6,3.6,0,0,1,.2,4.14.69.69,0,0,0,.8,1c3.18-1,6.4.64,8.19,2.73a6.18,6.18,0,0,1,1.4,6.4h-.92a.69.69,0,0,0-.69.69v2.76H267a.69.69,0,0,0-.69.69v.69H236.21a.69.69,0,0,0-.33-.42L223.45,74a.65.65,0,0,0-.43-.09l-10.59,1.38c-.2,0-.41.07-6.29,4.27l-.1.1-1.83-1.46a.68.68,0,0,0-.36-.15l-12.67-1.26h0c-1.5-.87-3.06-1.66-4.65-2.39V69.66a55.14,55.14,0,0,1,5.88,2.78.64.64,0,0,0,.33.08.68.68,0,0,0,.33-1.29,57.1,57.1,0,0,0-6.54-3.07V66.89a57.25,57.25,0,0,1,5.88,2.79.76.76,0,0,0,.33.08.72.72,0,0,0,.61-.35.69.69,0,0,0-.28-.94,57.1,57.1,0,0,0-6.54-3.07V63.55a.69.69,0,0,0-1.38,0v1.31a56.36,56.36,0,0,0-11-2.83V59.41a.69.69,0,1,0-1.38,0v2.44a59.75,59.75,0,0,0-8.29-.48v-2a.69.69,0,1,0-1.38,0v2c-.7,0-1.4,0-2.11.07a.69.69,0,1,0,.08,1.38c.69,0,1.36,0,2-.07v1.38c-.7,0-1.4,0-2.11.07a.69.69,0,0,0,.08,1.38c.69-.05,1.36,0,2-.07v4.1c-.64,0-1.28,0-1.92.1a15.76,15.76,0,0,0-9.91-7c-5.81-1.41-11.73.18-15.27,4.07a19.85,19.85,0,0,0-18.54.31,21.73,21.73,0,0,0-10.88,16.27A6.76,6.76,0,0,0,101,85.61a9.88,9.88,0,0,0-2.74,9.78.68.68,0,0,0,.66.49.63.63,0,0,0,.19,0,.69.69,0,0,0,.47-.86A8.53,8.53,0,0,1,102,86.6c1.57-1.52,3.45-2.16,4.9-1.68a.71.71,0,0,0,.6-.08.69.69,0,0,0,.31-.51,20.43,20.43,0,0,1,10.26-16,18.6,18.6,0,0,1,17.74,0,.69.69,0,0,0,.84-.18c3.15-3.78,8.75-5.36,14.25-4a14.07,14.07,0,0,1,10.79,10.64.68.68,0,0,0,.37.47.69.69,0,0,0,.61,0c2.85-1.43,6.9.13,9.45,2.18s3.72,4.35,3.43,6.34a8,8,0,0,0-4.23,1.38,11.73,11.73,0,0,0-12.09-6.54,10,10,0,0,0-8.58,8,8.12,8.12,0,0,0-5.37,2.32,8,8,0,0,0-2.58,5.88.68.68,0,0,0,.69.68h0a.7.7,0,0,0,.68-.71,7,7,0,0,1,7.1-6.78.7.7,0,0,0,.73-.59,8.54,8.54,0,0,1,7.5-7.43,10.47,10.47,0,0,1,11,6.53.69.69,0,0,0,1.09.24,6.82,6.82,0,0,1,6.53-1.28A6.27,6.27,0,0,1,182.39,90a.7.7,0,0,0,.7.53,3.18,3.18,0,0,1,2.5.9,4.84,4.84,0,0,1,1.34,3.36.69.69,0,0,0,1.38,0,6.41,6.41,0,0,0-.73-2.88h5.84v3.45a.69.69,0,0,0,1.38,0V91.86h9.67v3.45a.69.69,0,1,0,1.38,0V91.86h9.67v3.45a.69.69,0,0,0,1.38,0V91.86h9.66v3.45a.69.69,0,0,0,1.38,0V91.86h8.29v3.45a.69.69,0,0,0,1.38,0V93.24h2.07v2.07a.69.69,0,0,0,.69.69h26.24a.86.86,0,0,0,.17,0,1,1,0,0,0,.18,0,.69.69,0,0,0,.69-.69V81.5h3.79a.69.69,0,0,0,.69-.69V78.05h3.63v2.76a.69.69,0,0,0,.69.69h11.39a.69.69,0,0,0,.69-.69V75.29h4.32v14.5a.69.69,0,0,0,.69.69h5.52a.69.69,0,0,0,.69-.69V86.51h10.36a.69.69,0,0,0,.69-.69V67.69h11.05v9h-6.22a.69.69,0,0,0-.69.69v5.52a.69.69,0,0,0,.69.69h2.07V95.31a.69.69,0,0,0,.7.69h69a.69.69,0,0,0,.69-.69V85h11.74V95.31a.69.69,0,0,0,.69.69H455.8a.69.69,0,0,0,.69-.69v-18h30.9v18a.69.69,0,0,0,1.38,0v-18H490a.69.69,0,0,0,.69-.69v-7.6a.69.69,0,0,0-.69-.69H456.49v-6.9h15.88a.69.69,0,0,0,.69-.69V49.05h77.45l3.69,18.77a.69.69,0,0,0,.68.56H598v7.25H593.8a.7.7,0,0,0-.68.58l-.07.46H561.44a.69.69,0,1,0,0,1.38h31.38l-1.61,9.66v7.6a.7.7,0,0,0,1.39,0V90.77a.75.75,0,0,0,.26,0h49.37a.75.75,0,0,0,.26,0v4.54a.69.69,0,1,0,1.38,0V80.81h2.42v14.5a.69.69,0,0,0,1.38,0V90.77a.75.75,0,0,0,.26,0h49.37a.75.75,0,0,0,.26,0v4.54a.69.69,0,0,0,1.38,0V87.6l-.21-1.27h58.65v9a.69.69,0,1,0,1.38,0V81.5H767V95.31a.69.69,0,0,0,1.38,0V80.81a.69.69,0,0,0-.69-.69h-9V54.23h21.4V94.45a.69.69,0,0,0,1.38,0V58h26.24v6.22H793.43a8.29,8.29,0,0,0-8.28,8.28.69.69,0,0,0,.69.69H789V87h-1.21a2.6,2.6,0,0,0-2.59,2.59v5.7a.69.69,0,0,0,1.38,0v-5.7a1.21,1.21,0,0,1,1.21-1.21H852.3a1.21,1.21,0,0,1,1.2,1.21v5.7a.7.7,0,0,0,1.39,0v-5.7A2.6,2.6,0,0,0,852.3,87h-.87V65.62h31.76V95.31a.69.69,0,1,0,1.38,0V49.74a.69.69,0,0,0-.69-.69H879.4V46.63h4.48a.69.69,0,0,0,.69-.69V30.75A.69.69,0,0,0,883.88,30.06Zm-348.68.32a2.76,2.76,0,1,1-2.76,2.76A2.77,2.77,0,0,1,535.2,30.38ZM529.71,17a2.71,2.71,0,0,1,1.37-.37,2.76,2.76,0,1,1-.71,5.43,2.77,2.77,0,0,1-.66-5.06ZM518.31,6.27A2.73,2.73,0,0,1,520,5a2.83,2.83,0,0,1,.71-.1,2.71,2.71,0,0,1,1.38.38h0a2.71,2.71,0,0,1,1.29,1.67,2.76,2.76,0,0,1-.28,2.1,2.77,2.77,0,0,1-3.77,1A2.76,2.76,0,0,1,518.31,6.27Zm-28,3.77a2.76,2.76,0,0,1-1-3.77A2.73,2.73,0,0,1,491,5a2.9,2.9,0,0,1,.71-.1,2.71,2.71,0,0,1,1.38.38h0a2.71,2.71,0,0,1,1.29,1.67,2.76,2.76,0,0,1-.28,2.1,2.77,2.77,0,0,1-3.77,1Zm-9.66,12a2.77,2.77,0,1,1,2.1-.28A2.76,2.76,0,0,1,480.66,22ZM477.2,35.9A2.76,2.76,0,1,1,480,33.14,2.77,2.77,0,0,1,477.2,35.9Zm-241,47h30v1.38h-30ZM203.51,79.4l6.74,5.4a.7.7,0,0,0,.43.15.67.67,0,0,0,.54-.26.69.69,0,0,0-.11-1l-4-3.18c2.41-1.72,5.06-3.58,5.6-3.89L223,75.31l11.9,6.78a.36.36,0,0,0,0,.1V85a.69.69,0,0,0,.69.69h.69v2.07h-8.29V86.33a.69.69,0,1,0-1.38,0v1.38H216.9V86.33a.69.69,0,0,0-1.38,0v1.38h-9.67V86.33a.69.69,0,0,0-1.38,0v1.38h-.37a44.13,44.13,0,0,0-10.26-9.27Zm-18.37-5.62a54.45,54.45,0,0,0-11.09-3.32.58.58,0,0,0,0-.18V66.19a55.13,55.13,0,0,1,11,2.89Zm0-7.46v1.3a57.08,57.08,0,0,0-11-2.83V63.43A55.13,55.13,0,0,1,185.14,66.32Zm-20.72-3.57a59.75,59.75,0,0,1,8.29.48v1.38a59.75,59.75,0,0,0-8.29-.48ZM172.71,66v4.23a49.32,49.32,0,0,0-8.29-.62V65.51A59.75,59.75,0,0,1,172.71,66Zm5.75,18.12a8.27,8.27,0,0,0-1.54-.32c.29-2.45-1.16-5.25-3.94-7.48s-6.85-3.79-10.15-2.66a14.53,14.53,0,0,0-1-2.55c14.93-1.09,31.22,5.64,40.47,16.61h-7.5V86.33a.69.69,0,0,0-1.38,0v1.38H183.06l-.08,0A7.66,7.66,0,0,0,178.46,84.11Zm8.16,6.37a.73.73,0,0,0-.08-.09,4.56,4.56,0,0,0-2.95-1.29h9.83v1.38Zm8.18,0V89.1h9.67v1.38Zm11,0V89.1h9.67v1.38Zm11.05,0V89.1h9.66v1.38Zm11,0V89.1h8.29v1.38Zm9.67,1.38V85.64h2.07v6.22Zm3.45-6.22h25.21v9H241.06Zm87-2.07h15.19v2.76H328.06Zm3.45,4.14H335v6.91h-3.46Zm4.84,0h3.45v6.91h-3.45Zm4.83,2.77h11.05v4.14H341.18Zm11.05-1.38H341.18V87.71h2.76a.69.69,0,0,0,.69-.69V83.57h7.6Zm-35.91-11H355v4.14H316.32Zm10.36,5.52V87a.69.69,0,0,0,.69.69h2.76V89.1h-11V83.57Zm-7.59,6.91h11v4.14h-11Zm136-17.78H401.25v-5h53.86Zm0-35.39v29H401.25v-29Zm0,57.31H401.25V74.08h53.86ZM472.2,76h-7.6V69.76h7.6Zm1.38-6.22h7.59V76h-7.59ZM489.28,76h-6.73V69.76h6.73Zm-26.06-6.22V76h-6.73V69.76ZM598,62.17H567V58H598ZM529.71,46a2.76,2.76,0,0,1,3.77,1,3.09,3.09,0,0,1,.26.68h-5.31A2.76,2.76,0,0,1,529.71,46ZM504.13,32.42l-.82,7.79a7.6,7.6,0,1,1,5.78,0l-.82-7.79a.69.69,0,0,0-.69-.62h-2.76A.7.7,0,0,0,504.13,32.42Zm5.11,9.2a9,9,0,1,0-6.07,0l-.23,2.14a11.05,11.05,0,1,1,6.52,0Zm-21,1.88,6.39-5.74A12.39,12.39,0,0,0,496.48,41l-8,3Zm-2.76-10.3v0l8.43-1.81a11.36,11.36,0,0,0,0,3.68l-8.43-1.8Zm.07-1.46a20.4,20.4,0,0,1,2-7.59l6.4,5.78ZM494,36.47l-6.43,5.78a20.64,20.64,0,0,1-2-7.59Zm12.2-24h0l1.8,8.44a10.66,10.66,0,0,0-3.68,0l1.81-8.44Zm1.46.07a20.59,20.59,0,0,1,7.59,2L509.47,21ZM502.93,21l-5.78-6.4a20.59,20.59,0,0,1,7.59-2Zm24,12.2v0L518.49,35a11.75,11.75,0,0,0,0-3.68l8.43,1.81Zm-.07,1.46a20.65,20.65,0,0,1-2,7.59l-6.42-5.78Zm-8.45-4.73,6.4-5.78a20.4,20.4,0,0,1,2,7.59Zm-.63,7.83,6.38,5.74a1.62,1.62,0,0,1-.1.18L515.94,41A13,13,0,0,0,517.77,37.76Zm9.71,6.88-1.58-1.43a22,22,0,0,0,2.34-8.84l2.1-.45A23.94,23.94,0,0,1,527.48,44.64Zm.76-12.6a22,22,0,0,0-2.37-8.85l1.6-1.45a24,24,0,0,1,2.86,10.75Zm-4.1-9.15-6.38,5.77a12.37,12.37,0,0,0-1.85-3.19l8.19-2.65A.43.43,0,0,0,524.14,22.89Zm-9,1.38L517.79,16a20.93,20.93,0,0,1,5.57,5.57Zm-1.2-.78a12.28,12.28,0,0,0-3.18-1.84l5.76-6.39.07,0Zm2.29-10a21.87,21.87,0,0,0-8.86-2.36l-.45-2.1a24.19,24.19,0,0,1,10.75,2.86ZM505,11.17a21.78,21.78,0,0,0-8.85,2.36l-1.45-1.6a24.22,24.22,0,0,1,10.75-2.86Zm-9.15,4.09,5.76,6.39a12.28,12.28,0,0,0-3.18,1.84l-2.65-8.19Zm1.38,9L489,21.61A21.08,21.08,0,0,1,494.61,16Zm-.78,1.2a12.06,12.06,0,0,0-1.84,3.19l-6.39-5.77a.16.16,0,0,0,0-.07Zm-11.56-3.73,1.6,1.45A21.83,21.83,0,0,0,484.17,32l-2.1.45A24.09,24.09,0,0,1,484.93,21.74Zm-.77,12.63a22,22,0,0,0,2.35,8.84l-1.59,1.43a24.07,24.07,0,0,1-2.86-10.72Zm2.39,12.91c-.21-.3-.4-.62-.61-.93l2-.74a22.08,22.08,0,0,0,1.58,2.06h-2.86A.62.62,0,0,0,486.55,47.28Zm4.39-.07a20.56,20.56,0,0,1-1.66-2.09l8.21-3a12.36,12.36,0,0,0,5.3,3.07l-.25,2.46s0,0,0,.06H491.12A.69.69,0,0,0,490.94,47.21Zm14.5-14H507l1.53,14.49h-4.57Zm4.17,12a12.52,12.52,0,0,0,5.31-3.08l8.37,2.81a21.55,21.55,0,0,1-1.83,2.33.74.74,0,0,0-.18.46H509.86s0,0,0-.06Zm15,.19,2,.68c-.27.42-.54.85-.83,1.26a.62.62,0,0,0-.12.39h-2.85A23.42,23.42,0,0,0,524.65,45.34Zm2.08-24.82-2,.66a22.39,22.39,0,0,0-6.48-6.49l.65-2A24.23,24.23,0,0,1,526.73,20.52ZM506.2,1.38a2.76,2.76,0,1,1-2.76,2.76A2.77,2.77,0,0,1,506.2,1.38ZM493.52,12.67l.65,2a22.39,22.39,0,0,0-6.48,6.49l-2-.66A24.23,24.23,0,0,1,493.52,12.67ZM480,46a2.77,2.77,0,0,1,3.78,1,2.64,2.64,0,0,1,.25.68h-5.3A2.75,2.75,0,0,1,480,46Zm75.46,21-3.59-18.26C563,43.36,583.28,40.51,598,40.42V56.64H566.27a.69.69,0,0,0-.69.69v5.53a.69.69,0,0,0,.69.69H598V67Zm142,20a.8.8,0,0,0-.15,0h-7.86V80.81H696a.69.69,0,0,0,.35-.11ZM593.76,80.81h6V87h-7Zm103.53,8.63H647.92a.75.75,0,0,0-.26,0V80.12a.69.69,0,0,0-.69-.69h-3.8a.69.69,0,0,0-.69.69v9.37a.75.75,0,0,0-.26,0H592.85a.75.75,0,0,0-.26,0V88.4h7.86a.69.69,0,0,0,.69-.69V80.12a.69.69,0,0,0-.69-.69H594l.4-2.42H695.75l.41,2.45a.58.58,0,0,0-.14,0h-7.28a.69.69,0,0,0-.69.69v7.59a.69.69,0,0,0,.69.69h8.55a.58.58,0,0,0,.26-.05v1.14A.75.75,0,0,0,697.29,89.44ZM790,51V44.73h8.63V51Zm-8.46,0V44.73h7.08V51ZM800,44.73h7.77V51H800Zm7.77-9.49v8.11H781.52V35.24Zm-26.24,21.4V52.33h26.24v4.31Zm56.76,15.19H824.5V65.62h6.91A6.92,6.92,0,0,1,838.28,71.83Zm-35.87-6.21h9.67v6.21h-9.67Zm11.05,0h9.66v6.21h-9.66Zm-20,0H801v6.21H786.56A6.92,6.92,0,0,1,793.43,65.62Zm-3.1,7.59h44.19V87H832.1v-6.9a.69.69,0,0,0-.69-.69H808.62a.69.69,0,0,0-.69.69V87h-17.6Zm40.39,10H809.31V80.81h21.41ZM809.31,87V84.61h21.41V87Zm42.12-55.58h31.76v2.82L872.35,45.11a.71.71,0,0,0-.1.14H851.43Zm5.18,15.19h10v2.42h-10ZM851.43,58h9v6.22h-9Zm21.41,0v6.22H861.79V58Zm1.38,6.22V58h9v6.22Zm9-7.6H851.43V50.43h31.76ZM878,49.05H868V46.63h10Zm-3.86-3.8,9-9v9Z"/><path class="a" d="M986.42,60.1h-7.6a.69.69,0,0,0-.69.69v7.59a.69.69,0,0,0,.69.69h7.6a.69.69,0,0,0,.69-.69V60.79A.69.69,0,0,0,986.42,60.1Zm-.69,7.59h-6.22V61.48h6.22Z"/><path class="a" d="M998.16,60.1h-7.6a.69.69,0,0,0-.69.69v7.59a.69.69,0,0,0,.69.69h7.6a.69.69,0,0,0,.69-.69V60.79A.69.69,0,0,0,998.16,60.1Zm-.69,7.59h-6.22V61.48h6.22Z"/><path class="a" d="M1009.89,60.1h-7.59a.69.69,0,0,0-.69.69v7.59a.69.69,0,0,0,.69.69h7.59a.69.69,0,0,0,.69-.69V60.79A.68.68,0,0,0,1009.89,60.1Zm-.69,7.59H1003V61.48h6.21Z"/><path class="a" d="M986.42,47.67h-7.6a.69.69,0,0,0-.69.69V56a.69.69,0,0,0,.69.69h7.6a.69.69,0,0,0,.69-.69V48.36A.69.69,0,0,0,986.42,47.67Zm-.69,7.59h-6.22V49.05h6.22Z"/><path class="a" d="M998.16,47.67h-7.6a.69.69,0,0,0-.69.69V56a.69.69,0,0,0,.69.69h7.6a.69.69,0,0,0,.69-.69V48.36A.69.69,0,0,0,998.16,47.67Zm-.69,7.59h-6.22V49.05h6.22Z"/><path class="a" d="M1009.89,47.67h-7.59a.69.69,0,0,0-.69.69V56a.69.69,0,0,0,.69.69h7.59a.69.69,0,0,0,.69-.69V48.36A.69.69,0,0,0,1009.89,47.67Zm-.69,7.59H1003V49.05h6.21Z"/><path class="a" d="M684,79.43H668.81a.69.69,0,0,0-.7.69v7.59a.69.69,0,0,0,.7.69H684a.69.69,0,0,0,.69-.69V80.12A.69.69,0,0,0,684,79.43ZM683.3,87H669.5V80.81h13.8Z"/><path class="a" d="M665,79.43H649.82a.69.69,0,0,0-.69.69v7.59a.69.69,0,0,0,.69.69H665a.69.69,0,0,0,.69-.69V80.12A.69.69,0,0,0,665,79.43ZM664.32,87H650.51V80.81h13.81Z"/><path class="a" d="M640.32,79.43H625.13a.69.69,0,0,0-.69.69v7.59a.69.69,0,0,0,.69.69h15.19a.68.68,0,0,0,.69-.69V80.12A.69.69,0,0,0,640.32,79.43ZM639.63,87H625.82V80.81h13.81Z"/><path class="a" d="M621.34,79.43H606.15a.69.69,0,0,0-.69.69v7.59a.68.68,0,0,0,.69.69h15.19a.69.69,0,0,0,.69-.69V80.12A.69.69,0,0,0,621.34,79.43ZM620.65,87H606.84V80.81h13.81Z"/><path class="a" d="M544.87,72h-11a.69.69,0,1,0,0,1.38h11a.69.69,0,1,0,0-1.38Z"/><path class="a" d="M544.87,66.37h-11a.69.69,0,1,0,0,1.38h11a.69.69,0,1,0,0-1.38Z"/><path class="a" d="M544.87,77.53h-11a.69.69,0,1,0,0,1.38h11a.69.69,0,1,0,0-1.38Z"/><path class="a" d="M1472.7,33.42c1.9,0,4.53.23,7.86.52,6.3.55,14.92,1.3,26.7,1.3a91.26,91.26,0,0,0,20.94-2.18A53.55,53.55,0,0,1,1540,31.6c8.42,0,18.46-1.07,18.46-6.15,0-3.88-7.47-5.85-22.18-5.85-6.1,0-8.65-1.77-11.35-3.65S1519.32,12,1512.72,12s-11.88,1.48-16.89,2.91c-4.57,1.31-8.89,2.54-14,2.54-11.15,0-23.16,2.94-23.16,9.38S1467.1,33.42,1472.7,33.42Zm9.09-14.55c5.35,0,9.76-1.27,14.42-2.6,4.91-1.41,10-2.86,16.51-2.86,6.16,0,8.72,1.78,11.43,3.67s5.6,3.9,12.14,3.9c19.3,0,20.8,3.42,20.8,4.47,0,3-6.39,4.77-17.08,4.77a54.37,54.37,0,0,0-12.09,1.49,89.83,89.83,0,0,1-20.66,2.15c-11.72,0-20.31-.75-26.58-1.3-3.36-.29-6-.52-8-.52-6.69,0-12.68-.4-12.68-5.18C1460,21.61,1471,18.87,1481.79,18.87Z"/><path class="a" d="M1500.47,83.57h-9V78.74a.69.69,0,0,0-.69-.69h-19.33a.69.69,0,0,0-.69.69v4.83h-7.6a.69.69,0,0,0-.69.69v11a.69.69,0,0,0,.69.69h37.29a.69.69,0,0,0,.69-.69v-11A.69.69,0,0,0,1500.47,83.57Zm-10.36,11.05h-26.24V85h7.6a.69.69,0,0,0,.69-.69V79.43h17.95Zm9.67,0h-8.29V85h8.29Z"/><path class="a" d="M1141.43,76.67h-11V76a.69.69,0,0,0-.69-.69h-16.57a.69.69,0,0,0-.69.69v.69h-11a.69.69,0,0,0-.69.69v5.52a.69.69,0,0,0,.69.69h2.07v.94h-36.1V78a.69.69,0,0,0-.69-.69h-17.05a.58.58,0,0,0-.19,0V71.14a.69.69,0,0,0-.69-.69H1023V31.1a.69.69,0,0,0-.69-.69H967.09a.69.69,0,0,0-.7.69V70.45H950a.69.69,0,0,0-.69.69v9a.69.69,0,0,0,.69.69h1.2v14.5a.7.7,0,0,0,1.39,0V80.81H956a.69.69,0,0,0,.65-.46,5,5,0,0,1,9.4,0,.65.65,0,0,0,.3.35V95.31a.7.7,0,0,0,1.39,0V85h2.41V95.31a.69.69,0,0,0,1.38,0V85h17.61V95.31a.69.69,0,1,0,1.38,0V85h17.61V95.31a.69.69,0,1,0,1.38,0V85h12.08V95.31a.69.69,0,1,0,1.38,0v-15s0,0,0,.08a.69.69,0,0,0,.65.46h3.46v14.5a.69.69,0,1,0,1.38,0V80.81H1032a.67.67,0,0,0,.65-.46,5,5,0,0,1,9.4,0,.67.67,0,0,0,.65.46h3.45v14.5a.69.69,0,1,0,1.38,0V80.81h1.21a.69.69,0,0,0,.69-.69V78.63a1.08,1.08,0,0,0,.19,0H1066V85.2a.69.69,0,0,0,.69.69h36.79v9.42a.69.69,0,0,0,.69.69h34.53a.69.69,0,0,0,.69-.69V83.57h2.07a.69.69,0,0,0,.69-.69V77.36A.69.69,0,0,0,1141.43,76.67ZM967.78,31.79h41.77v9.66H967.78Zm0,17.26H974v6.21h-6.21Zm0,12.43H974v6.21h-6.21Zm0,7.59h6.9a.69.69,0,0,0,.69-.69V60.79a.69.69,0,0,0-.69-.69h-6.9V56.64h6.9a.69.69,0,0,0,.69-.69V48.36a.69.69,0,0,0-.69-.69h-6.9V42.83h42.46a.69.69,0,0,0,.69-.69V31.79h10.7V70.45h-5.18V37.31a.69.69,0,0,0-1.38,0V70.45H967.78Zm0,14.5V80.81h2.41v2.76Zm3.79,0V80.81H975a.69.69,0,0,0,.65-.46,5,5,0,0,1,9.39,0,.69.69,0,0,0,.65.46h3.46v2.76Zm19,0V80.81H994a.69.69,0,0,0,.65-.46,5,5,0,0,1,9.39,0,.69.69,0,0,0,.65.46h3.46v2.76Zm19,0V80.81H1013a.69.69,0,0,0,.65-.46,4.94,4.94,0,0,1,8-2.08v5.3ZM1048,79.43h-4.89a6.34,6.34,0,0,0-11.62,0h-7.36a6.35,6.35,0,0,0-11.63,0h-7.36a6.35,6.35,0,0,0-11.63,0h-7.36a6.35,6.35,0,0,0-11.63,0H967.2a6.35,6.35,0,0,0-11.63,0h-4.88v-7.6H1048Zm65.77-2.76H1129v2.76h-15.19Zm-9,12.43h18v5.52h-18Zm22.79-1.39v6.91h-3.45V87.71Zm4.83,0v6.91H1129V87.71Zm5.52,6.91h-4.14V87a.69.69,0,0,0-.69-.69h-9.66a.69.69,0,0,0-.7.69v.69h-18V83.57H1138Zm2.77-12.43h-38.67V78.05h10.36v2.07a.69.69,0,0,0,.69.69h16.57a.69.69,0,0,0,.69-.69V78.05h10.36Z"/><path class="a" d="M1426.33,34.83c1.45,0,3.19-.16,5.22-.34a102,102,0,0,1,10.44-.55c4.14,0,6.88,0,8.62-.55,1.94-.61,2.76-1.89,2.76-4.3,0-5.55-14.47-6.15-20.7-6.15-7.27,0-11.61,3-11.61,8a3.63,3.63,0,0,0,1,2.82C1423,34.56,1424.42,34.83,1426.33,34.83Zm6.34-10.51c11.56,0,19.32,1.92,19.32,4.77,0,2-.63,2.61-1.79,3-1.54.48-4.2.49-8.32.49h-.11c-4,0-7.52.31-10.34.56-4.2.37-7.24.64-8.38-.41a2.2,2.2,0,0,1-.6-1.8C1422.45,25,1429.6,24.32,1432.67,24.32Z"/><path class="a" d="M1236.2,68.62h.11a.69.69,0,0,0,.58-.79,2.21,2.21,0,0,1,1.19-2.5,2.11,2.11,0,0,1,2.29.1.69.69,0,0,0,1.17-.43,7.67,7.67,0,0,1,5.39-6.4c3.63-1.35,7.91-.86,10,1.12a.7.7,0,0,0,1-.09c2.79-3.8,7.94-6.25,14.13-6.72,7.46-.56,14.94,1.82,19.89,6.21a20.57,20.57,0,0,0-7.36,3.91.7.7,0,0,0-.07,1,.68.68,0,0,0,1,.07c4.42-3.79,11.11-5.43,17.9-4.39,6.57,1,12.23,4.39,15.13,9a.69.69,0,0,0,.86.26,3.24,3.24,0,0,1,4.25,2.17.68.68,0,0,0,.67.55h.15a.69.69,0,0,0,.53-.82,4.63,4.63,0,0,0-5.59-3.35c-3.19-4.74-9-8.17-15.79-9.2a26.78,26.78,0,0,0-10,.35c-5.21-5-13.44-7.75-21.6-7.14-6.27.47-11.58,2.9-14.68,6.69-2.56-1.91-7-2.33-10.82-.93a9.13,9.13,0,0,0-6.12,6.54,3.8,3.8,0,0,0-2.88.26,3.6,3.6,0,0,0-1.93,4A.69.69,0,0,0,1236.2,68.62Z"/><path class="a" d="M1644.2,90.33a9.55,9.55,0,0,0-6.22-1.51c.24-3.93-1.7-8.18-5.22-11.33a14.71,14.71,0,0,0-13.38-3.65,11.26,11.26,0,0,0-12.54-.52,11.51,11.51,0,0,0-1.06.71.48.48,0,0,0-.14-.09,9.85,9.85,0,0,1-4.07-2.55c-1.3-1.24-2.41-2.31-6-2.06a42.92,42.92,0,0,0-6.35,1c-.78.17-1.56.34-2.34.49-10.16,2-17.74,1.15-25.75.26-7.4-.83-15.06-1.68-24.9-.1-3.87.62-15.12,1.71-19.13,1.17a19.58,19.58,0,0,1-4.29-1.51c-4.95-2.09-11.7-4.94-18-1q-9.48-5.22-19.58-11.39h0q-10.69-6.54-22.2-14.21a.64.64,0,0,0-.3-.11l-21.72-2.52h-.16L1409.38,44l-19.93-2.25a.7.7,0,0,0-.49.13c-23.21,16.93-39.81,24.69-54.46,31.53L1331,75l0,0V72.52a.69.69,0,0,0-.69-.69h-34.18a.69.69,0,0,0-.69.69v11H1283V80.12h3.45a.68.68,0,0,0,.57-.3.67.67,0,0,0,.08-.63l-4.83-13.12a.69.69,0,0,0-.65-.45h-30.38a.69.69,0,0,0-.65.45l-1.9,5.17h-21.13l-.87-2.36a.69.69,0,0,0-.65-.45H1211.3l-.87-2.36a.69.69,0,0,0-.65-.45H1179.4a.68.68,0,0,0-.64.45l-4.84,13.12a.67.67,0,0,0,.08.63.68.68,0,0,0,.57.3h2.07v3.45h-28.31a3.46,3.46,0,0,0-3.45,3.45v6.91A2.07,2.07,0,0,0,1147,96h41.43a2,2,0,0,1,2.76,0h41.43a2,2,0,0,1,2.76,0,.69.69,0,1,0,0-1.38.69.69,0,0,1-.69-.69V87a2.07,2.07,0,0,1,2.07-2.07h8.3a3.46,3.46,0,0,0-.7,2.07v6.91a2.07,2.07,0,0,0,2.07,2.07h52.47a2.07,2.07,0,0,0,2.07-2.07V87a3.45,3.45,0,0,0-3.45-3.45h-.69V73.21h32.8V91.86a.69.69,0,0,0,.69.69h10.87a.69.69,0,0,0,0-1.38H1331V81.5h19.85V95.31a.69.69,0,0,0,1.38,0V90.48h11.57a.69.69,0,0,0,.69-.69V85h11v4.84a.69.69,0,0,0,.69.69h28.31v4.83a.69.69,0,1,0,1.38,0V85h6.91V87a.69.69,0,0,0,.69.69h7.59v7.6a.7.7,0,0,0,1.39,0V87a.69.69,0,0,0-.69-.69h-7.6V84.26a.69.69,0,0,0-.69-.69h-8.29a.69.69,0,0,0-.69.69V89.1h-27.61V84.26a.69.69,0,0,0-.7-.69h-12.42a.69.69,0,0,0-.69.69V89.1h-10.88V80.81a.69.69,0,0,0-.69-.69H1331v-3.9a.69.69,0,0,0,.64,0l3.49-1.63c10.63-5,22.3-10.43,36.75-19.49a.6.6,0,0,0,.11.12l8.37,6.28a.7.7,0,0,0,.67.09l10.17-4.07,7.51,3.92a.72.72,0,0,0,.54,0l12.4-4.11,31.83,10.51a.85.85,0,0,0,.22,0,.57.57,0,0,0,.18,0l31-8.29a436.36,436.36,0,0,0,39.59,21.67.63.63,0,0,0,.3.07.71.71,0,0,0,.62-.39.69.69,0,0,0-.33-.92c-6.07-2.9-12.3-6.09-18.74-9.6,5.5-3,11.55-.41,16,1.49a20.35,20.35,0,0,0,4.65,1.61c4.31.57,15.79-.58,19.53-1.18,9.66-1.55,17.21-.7,24.52.11,7.77.86,15.8,1.76,26.17-.27.79-.15,1.58-.33,2.37-.5a42.67,42.67,0,0,1,6.15-1c3-.19,3.73.56,4.92,1.69a11.39,11.39,0,0,0,4,2.64,9.07,9.07,0,0,0-2.74,7,9.4,9.4,0,0,0-4.45.25.69.69,0,0,0-.29-.07h-38V78.74a.69.69,0,0,0-.69-.69h-2.76a.69.69,0,0,0-.7.69V89.1h-9a.69.69,0,0,0-.69.69v5.52a.69.69,0,0,0,.69.69h58a.69.69,0,0,0,.69-.69V89.79a.69.69,0,0,0-.69-.69h-10.32a5.89,5.89,0,0,1,2.17-4.51,7.49,7.49,0,0,1,6.6-1,.65.65,0,0,0,.63-.16.67.67,0,0,0,.22-.62,7.93,7.93,0,0,1,4.2-8.26,9.87,9.87,0,0,1,11.26.63.71.71,0,0,0,.62.12,13.28,13.28,0,0,1,12.42,3.26c3.5,3.12,5.28,7.4,4.66,11.15a.69.69,0,0,0,.27.67.67.67,0,0,0,.72.06c1.3-.65,3.93-.17,6,1.1,1.7,1.06,2.68,2.44,2.68,3.81a.69.69,0,0,0,1.38,0C1647.54,93.43,1646.35,91.66,1644.2,90.33Zm-362.61-6.76H1266.4V80.12h15.19Zm-44.4-4.83-2.25-6.12h30.29l2.25,6.12ZM1251.69,67h29.42l4.32,11.74H1269l-2.59-7a.69.69,0,0,0-.65-.45h-15.58Zm-18.22,5.62,2.25,6.12h-5.43L1228,72.62Zm-7.94-2.81,3.29,8.93H1215.1l-3.29-8.93ZM1225,83.57h-13.81V80.12H1225Zm-32.45,0a3.84,3.84,0,0,0-.69.07V80.12h18v3.45Zm-2.76,1.4a3.46,3.46,0,0,0-2.76-1.4h-.69V80.12h4.14v4.16A3.76,3.76,0,0,0,1189.76,85Zm-2.55-18,4.32,11.74h-4L1183.15,67Zm26.42,11.74H1193L1188.68,67h20.62Zm-38.07,0L1179.88,67h1.8L1186,78.74Zm2.46,1.38h6.91v3.45H1178Zm10.36,14.5H1147a.69.69,0,0,1-.69-.69V87a2.07,2.07,0,0,1,2.07-2.07H1187a2.07,2.07,0,0,1,2.07,2.07v6.91A.69.69,0,0,1,1188.38,94.62Zm2.76,0a.69.69,0,0,1-.69-.69V87a2.07,2.07,0,0,1,2.07-2.07h11a2.07,2.07,0,0,1,2.07,2.07v6.91a.69.69,0,0,1-.69.69Zm41.43,0h-25.68a2,2,0,0,0,.13-.69V87a3.41,3.41,0,0,0-.71-2.07h24.88a2.07,2.07,0,0,1,2.07,2.07v6.91A.69.69,0,0,1,1232.57,94.62ZM1234,85a3.46,3.46,0,0,0-2.76-1.4h-4.84V80.12H1265v3.45h-28.31A3.46,3.46,0,0,0,1234,85Zm65.59,2v6.91a.69.69,0,0,1-.69.69h-52.47a.69.69,0,0,1-.69-.69V87a2.07,2.07,0,0,1,2.07-2.07h49.71A2.07,2.07,0,0,1,1299.54,87Zm144.14-20.48L1411.83,56a.66.66,0,0,0-.44,0l-12.34,4.09-7.53-3.93a.64.64,0,0,0-.57,0l-10.11,4-7.77-5.83c5.12-3.25,10.59-6.95,16.49-11.25l19.75,2.23h.15L1429.39,43l-7.32,9.16a.69.69,0,0,0,.1,1,.7.7,0,0,0,.43.15.67.67,0,0,0,.54-.26l8.14-10.17,21.17,2.46q10.75,7.17,20.75,13.31ZM1556.4,79.43h1.38V89.1h-1.38Zm46.95,15.19h-56.62V90.48h56.62Zm-44.19-5.52V86.33h33.74a7.87,7.87,0,0,0-.58,2.77Zm34.34-3.91A.67.67,0,0,0,1593,85h-33.83V83.57H1595A7,7,0,0,0,1593.5,85.19Z"/><path class="a" d="M1539.13,87.71h-4.87V86.33h1.16a.69.69,0,0,0,0-1.38h-1.16V82.88a.69.69,0,0,0-.69-.69h-3V78.74a.69.69,0,0,0-1.38,0v3.45h-9.76V78.74a.69.69,0,0,0-1.38,0v3.45h-3a.69.69,0,0,0-.69.69V85h-1.16a.69.69,0,1,0,0,1.38h1.16v1.38h-4.88a.68.68,0,0,0-.54.27.69.69,0,0,0-.12.6l1.85,6.91a.7.7,0,0,0,.67.51h26a.68.68,0,0,0,.66-.51l1.86-6.91a.69.69,0,0,0-.67-.87Zm-23.43-4.14h17.18V85H1515.7Zm0,2.76h17.18v1.38H1515.7Zm21,8.29h-24.92l-.76-2.82a.44.44,0,0,0,.15,0,118.6,118.6,0,0,0,12.88.69,129.28,129.28,0,0,0,13.25-.69.38.38,0,0,0,.15,0Zm1-3.89a.67.67,0,0,0-.58-.25,122.51,122.51,0,0,1-25.83,0,.71.71,0,0,0-.6.25l-.44-1.63h27.89Z"/><rect class="a" y="94.91" width="1745.45" height="1.09"/></svg>