<svg xmlns="http://www.w3.org/2000/svg" xmlns:xlink="http://www.w3.org/1999/xlink" width="32" height="32" viewBox="0 0 32 32"><defs><style>.a{fill:none;}.b{clip-path:url(#a);}.c{fill:#1877f2;}.d{fill:#fff;}</style><clipPath id="a"><rect class="a" width="32" height="32"/></clipPath></defs><title>facebook-logo</title><g class="b"><path class="c" d="M32,16A16,16,0,1,0,13.5,31.81V20.62H9.44V16H13.5V12.48c0-4,2.39-6.23,6-6.23a24.77,24.77,0,0,1,3.58.31V10.5h-2A2.31,2.31,0,0,0,18.5,13v3h4.44l-.71,4.62H18.5V31.81A16,16,0,0,0,32,16Z"/></g><path class="d" d="M22.23,20.62,22.94,16H18.5V13a2.31,2.31,0,0,1,2.61-2.5h2V6.56a24.77,24.77,0,0,0-3.58-.31c-3.65,0-6,2.22-6,6.23V16H9.44v4.62H13.5V31.81a16.54,16.54,0,0,0,5,0V20.62Z"/></svg>