<svg xmlns="http://www.w3.org/2000/svg" width="32" height="32" viewBox="0 0 32 32"><defs><style>.a{fill:#1da1f2;}.b{fill:#fff;}</style></defs><title>twitter-logo</title><circle class="a" cx="16" cy="16" r="16"/><path class="b" d="M13.07,24.44a10.9,10.9,0,0,0,11-11c0-.16,0-.33,0-.49A8.15,8.15,0,0,0,26,11a8.09,8.09,0,0,1-2.22.61,3.89,3.89,0,0,0,1.7-2.14,8,8,0,0,1-2.45.94,3.8,3.8,0,0,0-2.82-1.22A3.86,3.86,0,0,0,16.33,13a3.65,3.65,0,0,0,.1.88,10.92,10.92,0,0,1-7.95-4A3.88,3.88,0,0,0,8,11.8,3.84,3.84,0,0,0,9.68,15a3.8,3.8,0,0,1-1.74-.48v.05A3.85,3.85,0,0,0,11,18.36a3.73,3.73,0,0,1-1,.14,3.55,3.55,0,0,1-.73-.08,3.84,3.84,0,0,0,3.6,2.68A7.72,7.72,0,0,1,8.1,22.75a6.9,6.9,0,0,1-.92-.05,10.75,10.75,0,0,0,5.89,1.74"/></svg>